<svg width="156" height="39" viewBox="0 0 156 39" fill="none" xmlns="http://www.w3.org/2000/svg">
<rect x="1" y="1" width="153.33" height="37" rx="10" stroke="white" stroke-width="2"/>
<g clip-path="url(#clip0_5320_12234)">
<path d="M26.0056 19.4987H39.3244M39.3244 19.4987L33.3309 13.5053M39.3244 19.4987L33.3309 25.4922" stroke="white" stroke-width="1.33187" stroke-linecap="round" stroke-linejoin="round"/>
</g>
<path d="M57.7245 24.5L54.3463 15.19H55.8093L58.589 22.8574L61.382 15.19H62.845L59.4668 24.5H57.7245ZM63.5887 17.85H64.9719V24.5H63.5887V17.85ZM64.2936 16.8857C64.0808 16.8857 63.9035 16.817 63.7616 16.6796C63.6198 16.5422 63.5488 16.3693 63.5488 16.1609C63.5488 15.957 63.6198 15.7863 63.7616 15.6488C63.9035 15.507 64.0786 15.436 64.287 15.436C64.4909 15.436 64.6638 15.507 64.8057 15.6488C64.9475 15.7863 65.0185 15.957 65.0185 16.1609C65.0185 16.3693 64.9475 16.5422 64.8057 16.6796C64.6682 16.817 64.4976 16.8857 64.2936 16.8857ZM69.3721 24.6729C68.7603 24.6729 68.2017 24.5155 67.6963 24.2007C67.1954 23.886 66.7942 23.4648 66.4927 22.9372C66.1957 22.4052 66.0471 21.8178 66.0471 21.175C66.0471 20.6873 66.1336 20.2329 66.3065 19.8117C66.4794 19.3861 66.7166 19.0137 67.018 18.6945C67.3239 18.3709 67.6786 18.1182 68.082 17.9364C68.4855 17.7547 68.9155 17.6638 69.3721 17.6638C69.882 17.6638 70.3497 17.7702 70.7753 17.983C71.2009 18.1914 71.5644 18.4817 71.8659 18.8541C72.1674 19.2221 72.389 19.6477 72.5309 20.1309C72.6728 20.6097 72.7149 21.1196 72.6572 21.6604H67.5301C67.5877 21.9663 67.6986 22.2434 67.8626 22.4917C68.0311 22.7355 68.2439 22.9284 68.501 23.0702C68.7626 23.2121 69.0529 23.2853 69.3721 23.2897C69.7091 23.2897 70.015 23.2055 70.2898 23.037C70.5691 22.8685 70.7975 22.6358 70.9748 22.3387L72.3779 22.6646C72.1119 23.2542 71.7107 23.7375 71.1743 24.1143C70.6379 24.4867 70.0371 24.6729 69.3721 24.6729ZM67.4835 20.6031H71.2607C71.2164 20.2839 71.1034 19.9957 70.9216 19.7386C70.7443 19.477 70.5204 19.2709 70.2499 19.1201C69.9839 18.965 69.6913 18.8874 69.3721 18.8874C69.0574 18.8874 68.7648 18.9628 68.4943 19.1135C68.2283 19.2642 68.0067 19.4704 67.8293 19.7319C67.6564 19.9891 67.5412 20.2795 67.4835 20.6031ZM76.6521 24.5H75.2756L73.0478 17.85H74.4044L75.9738 22.5183L77.5299 17.85H78.9264L80.4825 22.5183L82.0453 17.85H83.4019L81.1808 24.5H79.7909L78.2215 19.7984L76.6521 24.5ZM87.7989 24.5V15.19H91.0042C91.5051 15.19 91.9573 15.3141 92.3608 15.5624C92.7686 15.8107 93.0923 16.1454 93.3317 16.5665C93.5755 16.9877 93.6974 17.4532 93.6974 17.963C93.6974 18.4817 93.5733 18.9517 93.325 19.3728C93.0812 19.7896 92.7553 20.1221 92.3475 20.3703C91.9396 20.6186 91.4918 20.7427 91.0042 20.7427H89.1821V24.5H87.7989ZM89.1821 19.3595H90.8645C91.1305 19.3595 91.3721 19.293 91.5894 19.16C91.811 19.027 91.9862 18.8497 92.1147 18.628C92.2477 18.4064 92.3142 18.1559 92.3142 17.8766C92.3142 17.5973 92.2477 17.3468 92.1147 17.1251C91.9862 16.899 91.811 16.7217 91.5894 16.5931C91.3721 16.4601 91.1305 16.3936 90.8645 16.3936H89.1821V19.3595ZM94.7866 24.5V17.85H96.1698V18.5549C96.4003 18.28 96.684 18.0628 97.021 17.9032C97.3579 17.7436 97.7214 17.6638 98.1116 17.6638C98.3598 17.6638 98.6059 17.697 98.8497 17.7635L98.2978 19.16C98.1249 19.0935 97.952 19.0603 97.7791 19.0603C97.4865 19.0603 97.2183 19.1334 96.9744 19.2797C96.7306 19.4216 96.5355 19.6145 96.3892 19.8583C96.2429 20.1021 96.1698 20.3726 96.1698 20.6696V24.5H94.7866ZM102.232 24.6729C101.621 24.6729 101.062 24.5155 100.557 24.2007C100.056 23.886 99.6545 23.4648 99.353 22.9372C99.056 22.4052 98.9075 21.8178 98.9075 21.175C98.9075 20.6873 98.9939 20.2329 99.1668 19.8117C99.3397 19.3861 99.5769 19.0137 99.8784 18.6945C100.184 18.3709 100.539 18.1182 100.942 17.9364C101.346 17.7547 101.776 17.6638 102.232 17.6638C102.844 17.6638 103.401 17.8212 103.902 18.1359C104.407 18.4507 104.808 18.8741 105.105 19.4061C105.407 19.9381 105.557 20.5277 105.557 21.175C105.557 21.6582 105.471 22.1104 105.298 22.5316C105.125 22.9528 104.886 23.3252 104.58 23.6488C104.278 23.968 103.926 24.2185 103.523 24.4002C103.124 24.582 102.694 24.6729 102.232 24.6729ZM102.232 23.2897C102.6 23.2897 102.931 23.1922 103.223 22.9971C103.516 22.802 103.746 22.5449 103.915 22.2257C104.088 21.9021 104.174 21.5518 104.174 21.175C104.174 20.7893 104.086 20.4346 103.908 20.111C103.735 19.7874 103.503 19.5302 103.21 19.3396C102.917 19.1445 102.592 19.047 102.232 19.047C101.869 19.047 101.539 19.1445 101.242 19.3396C100.949 19.5347 100.716 19.794 100.543 20.1176C100.375 20.4413 100.291 20.7937 100.291 21.175C100.291 21.5696 100.379 21.9264 100.557 22.2456C100.734 22.5648 100.969 22.8198 101.262 23.0104C101.559 23.1966 101.882 23.2897 102.232 23.2897ZM105.341 27.825V26.4418C105.62 26.4418 105.871 26.3775 106.092 26.249C106.318 26.1248 106.496 25.9519 106.624 25.7303C106.757 25.5086 106.824 25.2625 106.824 24.9921V17.85H108.207V24.9921C108.207 25.5108 108.081 25.9852 107.828 26.4152C107.575 26.8452 107.232 27.1866 106.797 27.4393C106.367 27.6964 105.882 27.825 105.341 27.825ZM107.529 16.8857C107.316 16.8857 107.139 16.817 106.997 16.6796C106.855 16.5422 106.784 16.3693 106.784 16.1609C106.784 15.957 106.855 15.7863 106.997 15.6488C107.139 15.507 107.314 15.436 107.522 15.436C107.726 15.436 107.899 15.507 108.041 15.6488C108.183 15.7863 108.254 15.957 108.254 16.1609C108.254 16.3693 108.183 16.5422 108.041 16.6796C107.903 16.817 107.733 16.8857 107.529 16.8857ZM112.61 24.6729C111.998 24.6729 111.44 24.5155 110.934 24.2007C110.433 23.886 110.032 23.4648 109.731 22.9372C109.434 22.4052 109.285 21.8178 109.285 21.175C109.285 20.6873 109.372 20.2329 109.544 19.8117C109.717 19.3861 109.955 19.0137 110.256 18.6945C110.562 18.3709 110.917 18.1182 111.32 17.9364C111.723 17.7547 112.153 17.6638 112.61 17.6638C113.12 17.6638 113.588 17.7702 114.013 17.983C114.439 18.1914 114.802 18.4817 115.104 18.8541C115.405 19.2221 115.627 19.6477 115.769 20.1309C115.911 20.6097 115.953 21.1196 115.895 21.6604H110.768C110.826 21.9663 110.937 22.2434 111.101 22.4917C111.269 22.7355 111.482 22.9284 111.739 23.0702C112.001 23.2121 112.291 23.2853 112.61 23.2897C112.947 23.2897 113.253 23.2055 113.528 23.037C113.807 22.8685 114.035 22.6358 114.213 22.3387L115.616 22.6646C115.35 23.2542 114.949 23.7375 114.412 24.1143C113.876 24.4867 113.275 24.6729 112.61 24.6729ZM110.722 20.6031H114.499C114.454 20.2839 114.341 19.9957 114.16 19.7386C113.982 19.477 113.758 19.2709 113.488 19.1201C113.222 18.965 112.929 18.8874 112.61 18.8874C112.295 18.8874 112.003 18.9628 111.732 19.1135C111.466 19.2642 111.245 19.4704 111.067 19.7319C110.894 19.9891 110.779 20.2795 110.722 20.6031ZM121.326 22.6114L122.563 23.283C122.261 23.7042 121.878 24.0411 121.412 24.2938C120.951 24.5466 120.45 24.6729 119.91 24.6729C119.298 24.6729 118.739 24.5155 118.234 24.2007C117.733 23.886 117.332 23.4648 117.03 22.9372C116.733 22.4052 116.585 21.8178 116.585 21.175C116.585 20.6873 116.671 20.2329 116.844 19.8117C117.017 19.3861 117.254 19.0137 117.555 18.6945C117.861 18.3709 118.216 18.1182 118.619 17.9364C119.023 17.7547 119.453 17.6638 119.91 17.6638C120.45 17.6638 120.951 17.7901 121.412 18.0428C121.878 18.2955 122.261 18.6347 122.563 19.0603L121.326 19.7319C121.14 19.5103 120.923 19.3418 120.674 19.2265C120.426 19.1068 120.171 19.047 119.91 19.047C119.546 19.047 119.216 19.1467 118.919 19.3462C118.626 19.5413 118.393 19.8007 118.22 20.1243C118.052 20.4435 117.968 20.7937 117.968 21.175C117.968 21.5518 118.054 21.9021 118.227 22.2257C118.4 22.5449 118.633 22.802 118.925 22.9971C119.222 23.1922 119.55 23.2897 119.91 23.2897C120.184 23.2897 120.446 23.2276 120.694 23.1035C120.943 22.9794 121.153 22.8153 121.326 22.6114ZM127.275 19.2332H125.878L125.871 24.5H124.488L124.495 19.2332H123.438V17.85H124.495L124.488 15.7619H125.871L125.878 17.85H127.275V19.2332ZM130.369 24.6264C130.019 24.6042 129.678 24.5333 129.345 24.4135C129.013 24.2938 128.72 24.132 128.467 23.9281C128.219 23.7197 128.033 23.4759 127.909 23.1966L129.086 22.6912C129.143 22.8109 129.243 22.9284 129.385 23.0436C129.531 23.1589 129.702 23.2542 129.897 23.3296C130.092 23.4005 130.296 23.436 130.509 23.436C130.717 23.436 130.91 23.4072 131.087 23.3495C131.269 23.2875 131.418 23.1944 131.533 23.0702C131.648 22.9461 131.706 22.7976 131.706 22.6247C131.706 22.4296 131.639 22.2789 131.506 22.1725C131.378 22.0617 131.216 21.9774 131.021 21.9198C130.826 21.8622 130.631 21.8067 130.436 21.7535C130.001 21.656 129.602 21.523 129.239 21.3545C128.88 21.1816 128.594 20.9622 128.381 20.6962C128.168 20.4258 128.062 20.0955 128.062 19.7053C128.062 19.2797 128.177 18.9118 128.408 18.6014C128.638 18.2867 128.94 18.0451 129.312 17.8766C129.689 17.7081 130.09 17.6239 130.516 17.6239C131.048 17.6239 131.535 17.7369 131.979 17.963C132.422 18.1891 132.761 18.4995 132.996 18.894L131.899 19.5457C131.832 19.4127 131.733 19.293 131.6 19.1866C131.467 19.0802 131.316 18.996 131.147 18.9339C130.979 18.8674 130.804 18.8298 130.622 18.8209C130.396 18.812 130.185 18.8386 129.99 18.9007C129.8 18.9583 129.647 19.0514 129.531 19.18C129.416 19.3086 129.358 19.4726 129.358 19.6721C129.358 19.8672 129.427 20.0135 129.565 20.111C129.702 20.2041 129.875 20.2795 130.083 20.3371C130.296 20.3947 130.513 20.459 130.735 20.5299C131.13 20.6541 131.5 20.807 131.846 20.9888C132.191 21.1661 132.471 21.3856 132.683 21.6471C132.896 21.9087 132.998 22.2279 132.989 22.6047C132.989 23.0215 132.863 23.3872 132.61 23.702C132.362 24.0168 132.038 24.2562 131.639 24.4202C131.24 24.5842 130.817 24.653 130.369 24.6264Z" fill="white"/>
<defs>
<clipPath id="clip0_5320_12234">
<rect width="21.33" height="21.31" fill="white" transform="translate(22 8.84375)"/>
</clipPath>
</defs>
</svg>
